<?xml version="1.0" encoding="utf-8"?>
<!-- Generator: Adobe Illustrator 24.0.1, SVG Export Plug-In . SVG Version: 6.00 Build 0)  -->
<svg version="1.1" id="Layer_1" xmlns="http://www.w3.org/2000/svg" xmlns:xlink="http://www.w3.org/1999/xlink" x="0px" y="0px"
	 viewBox="0 0 52 53" style="enable-background:new 0 0 52 53;" xml:space="preserve">
<style type="text/css">
	.st0{enable-background:new    ;}
	.st1{fill:none;stroke:#6FBD13;}
</style>
<g id="icon-congnghe" transform="translate(1 1)">
	<g class="st0">
		<path class="st1" d="M7.03,8.84v4.69h-4.1c-0.32,0-0.59-0.26-0.59-0.59v-0.59H0.59C0.26,12.36,0,12.1,0,11.77V10.6
			c0-0.32,0.26-0.59,0.59-0.59h1.76V9.43c0-0.32,0.26-0.59,0.59-0.59H7.03z M7.03,18.22v4.69h-4.1c-0.32,0-0.59-0.26-0.59-0.59
			v-0.59H0.59C0.26,21.73,0,21.47,0,21.15v-1.17c0-0.32,0.26-0.59,0.59-0.59h1.76V18.8c0-0.32,0.26-0.59,0.59-0.59H7.03z
			 M7.03,27.59v4.69h-4.1c-0.32,0-0.59-0.26-0.59-0.59v-0.59H0.59C0.26,31.11,0,30.85,0,30.52v-1.17c0-0.32,0.26-0.59,0.59-0.59
			h1.76v-0.59c0-0.32,0.26-0.59,0.59-0.59H7.03z M7.03,36.97v4.69h-4.1c-0.32,0-0.59-0.26-0.59-0.59v-0.59H0.59
			C0.26,40.48,0,40.22,0,39.9v-1.17c0-0.32,0.26-0.59,0.59-0.59h1.76v-0.59c0-0.32,0.26-0.59,0.59-0.59H7.03z M40.63,45.56
			c0,2.59-2.1,4.69-4.69,4.69H14.06c-2.59,0-4.69-2.1-4.69-4.69V4.94c0-2.59,2.1-4.69,4.69-4.69h21.88c2.59,0,4.69,2.1,4.69,4.69
			V45.56z M50,11.77c0,0.32-0.26,0.59-0.59,0.59h-1.76v0.59c0,0.32-0.26,0.59-0.59,0.59h-4.1V8.84h4.1c0.32,0,0.59,0.26,0.59,0.59
			v0.59h1.76c0.32,0,0.59,0.26,0.59,0.59V11.77z M50,21.15c0,0.32-0.26,0.59-0.59,0.59h-1.76v0.59c0,0.32-0.26,0.59-0.59,0.59h-4.1
			v-4.69h4.1c0.32,0,0.59,0.26,0.59,0.59v0.59h1.76c0.32,0,0.59,0.26,0.59,0.59V21.15z M50,30.52c0,0.32-0.26,0.59-0.59,0.59h-1.76
			v0.59c0,0.32-0.26,0.59-0.59,0.59h-4.1v-4.69h4.1c0.32,0,0.59,0.26,0.59,0.59v0.59h1.76c0.32,0,0.59,0.26,0.59,0.59V30.52z
			 M50,39.9c0,0.32-0.26,0.59-0.59,0.59h-1.76v0.59c0,0.32-0.26,0.59-0.59,0.59h-4.1v-4.69h4.1c0.32,0,0.59,0.26,0.59,0.59v0.59
			h1.76c0.32,0,0.59,0.26,0.59,0.59V39.9z"/>
	</g>
</g>
</svg>
