<?xml version="1.0" encoding="utf-8"?>
<!-- Generator: Adobe Illustrator 24.0.1, SVG Export Plug-In . SVG Version: 6.00 Build 0)  -->
<svg version="1.1" id="Layer_1" xmlns="http://www.w3.org/2000/svg" xmlns:xlink="http://www.w3.org/1999/xlink" x="0px" y="0px"
	 viewBox="0 0 52 53" style="enable-background:new 0 0 52 53;" xml:space="preserve">
<style type="text/css">
	.st0{enable-background:new    ;}
	.st1{fill:none;stroke:#6FBD13;}
</style>
<g id="icon-taichinh" transform="translate(1 1)">
	<g class="st0">
		<path class="st1" d="M50,37.75v9.38c0,1.73-1.4,3.13-3.13,3.13H3.13C1.4,50.25,0,48.85,0,47.13v-9.38c0-1.73,1.4-3.13,3.13-3.13
			h3.16c1.92,2.54,4.36,4.66,7.13,6.25H7.19c-0.52,0-0.94,0.35-0.94,0.78v1.56c0,0.43,0.42,0.78,0.94,0.78H42.8
			c0.52,0,0.94-0.35,0.94-0.78v-1.56c0-0.43-0.42-0.78-0.94-0.78h-6.23c2.77-1.59,5.21-3.71,7.13-6.25h3.17
			C48.6,34.63,50,36.02,50,37.75z M4.69,20.56C4.69,9.34,13.78,0.25,25,0.25s20.31,9.09,20.31,20.31S36.22,40.88,25,40.88
			S4.69,31.78,4.69,20.56z M17.06,15.86c0,2.71,1.76,5.12,4.27,5.87l6.08,1.83c0.69,0.21,1.18,0.92,1.18,1.72
			c0,0.99-0.71,1.79-1.59,1.79h-3.8c-0.63,0-1.21-0.17-1.74-0.5c-0.44-0.27-1-0.26-1.37,0.1l-1.59,1.51
			c-0.49,0.47-0.43,1.27,0.12,1.67c1.22,0.91,2.69,1.43,4.2,1.5V33c0,0.9,0.72,1.62,1.62,1.62h1.08c0.9,0,1.62-0.72,1.62-1.62v-1.64
			c3.19-0.09,5.77-2.77,5.77-6.09c0-2.71-1.76-5.12-4.27-5.87l-6.08-1.83c-0.69-0.21-1.18-0.92-1.18-1.72
			c0-0.99,0.71-1.79,1.59-1.79h3.8c0.63,0,1.21,0.17,1.74,0.5c0.44,0.27,1,0.26,1.37-0.1l1.59-1.51c0.49-0.47,0.43-1.27-0.12-1.67
			c-1.22-0.91-2.69-1.43-4.2-1.5V8.12c0-0.9-0.72-1.62-1.62-1.62h-1.08c-0.9,0-1.62,0.72-1.62,1.62v1.64
			C19.64,9.85,17.07,12.54,17.06,15.86z"/>
	</g>
</g>
</svg>
