<?xml version="1.0" encoding="utf-8"?>
<!-- Generator: Adobe Illustrator 24.0.1, SVG Export Plug-In . SVG Version: 6.00 Build 0)  -->
<svg version="1.1" id="Layer_1" xmlns="http://www.w3.org/2000/svg" xmlns:xlink="http://www.w3.org/1999/xlink" x="0px" y="0px"
	 viewBox="0 0 46 53" style="enable-background:new 0 0 46 53;" xml:space="preserve">
<style type="text/css">
	.st0{enable-background:new    ;}
	.st1{fill:none;stroke:#6FBD13;}
</style>
<g id="icon-xahoi" transform="translate(1 1)">
	<g class="st0">
		<path class="st1" d="M43.75,48.3v1.95H0V48.3c0-0.65,0.52-1.17,1.17-1.17h1.95V2.59c0-1.29,1.05-2.34,2.34-2.34h32.81
			c1.29,0,2.34,1.05,2.34,2.34v44.53h1.95C43.22,47.13,43.75,47.65,43.75,48.3z M12.5,11.58c0,0.65,0.52,1.17,1.17,1.17h3.91
			c0.65,0,1.17-0.52,1.17-1.17V7.67c0-0.65-0.52-1.17-1.17-1.17h-3.91c-0.65,0-1.17,0.52-1.17,1.17V11.58z M12.5,20.95
			c0,0.65,0.52,1.17,1.17,1.17h3.91c0.65,0,1.17-0.52,1.17-1.17v-3.91c0-0.65-0.52-1.17-1.17-1.17h-3.91
			c-0.65,0-1.17,0.52-1.17,1.17V20.95z M18.75,30.33v-3.91c0-0.65-0.52-1.17-1.17-1.17h-3.91c-0.65,0-1.17,0.52-1.17,1.17v3.91
			c0,0.65,0.52,1.17,1.17,1.17h3.91C18.23,31.5,18.75,30.98,18.75,30.33z M25,38.92c0-0.65-0.53-1.17-1.17-1.17h-3.91
			c-0.65,0-1.17,0.52-1.17,1.17v8.2H25V38.92z M31.25,7.67c0-0.65-0.53-1.17-1.17-1.17h-3.91C25.53,6.5,25,7.02,25,7.67v3.91
			c0,0.65,0.53,1.17,1.17,1.17h3.91c0.65,0,1.17-0.52,1.17-1.17V7.67z M31.25,17.05c0-0.65-0.53-1.17-1.17-1.17h-3.91
			c-0.65,0-1.17,0.52-1.17,1.17v3.91c0,0.65,0.53,1.17,1.17,1.17h3.91c0.65,0,1.17-0.52,1.17-1.17V17.05z M31.25,26.42
			c0-0.65-0.53-1.17-1.17-1.17h-3.91c-0.65,0-1.17,0.52-1.17,1.17v3.91c0,0.65,0.53,1.17,1.17,1.17h3.91c0.65,0,1.17-0.52,1.17-1.17
			V26.42z"/>
	</g>
</g>
</svg>
