<?xml version="1.0" encoding="utf-8"?>
<!-- Generator: Adobe Illustrator 24.0.1, SVG Export Plug-In . SVG Version: 6.00 Build 0)  -->
<svg version="1.1" id="Layer_1" xmlns="http://www.w3.org/2000/svg" xmlns:xlink="http://www.w3.org/1999/xlink" x="0px" y="0px"
	 viewBox="0 0 65 53" style="enable-background:new 0 0 65 53;" xml:space="preserve">
<style type="text/css">
	.st0{enable-background:new    ;}
	.st1{fill:none;stroke:#6FBD13;}
</style>
<g id="icon-nongnghiep" transform="translate(1 1)">
	<g class="st0">
		<path class="st1" d="M62.5,19v4.96c0,0.83-0.33,1.62-0.92,2.21l-4.96,4.96c-1.54-0.74-3.24-1.19-5.06-1.19
			c-3.82,0-7.18,1.86-9.32,4.69h-7.87v0.59c0,1.19-0.96,2.15-2.15,2.15h-0.7c-0.29,0.97-0.68,1.9-1.16,2.8l0.49,0.49
			c0.84,0.84,0.84,2.2,0,3.04l-3.04,3.04c-0.84,0.84-2.2,0.84-3.04,0l-0.49-0.49c-0.9,0.49-1.84,0.88-2.8,1.16v0.7
			c0,1.19-0.96,2.15-2.15,2.15h-4.3c-1.19,0-2.15-0.96-2.15-2.15v-0.7c-0.97-0.29-1.9-0.68-2.8-1.16l-0.49,0.49
			c-0.84,0.84-2.2,0.84-3.04,0L3.51,43.7c-0.84-0.84-0.84-2.2,0-3.04l0.49-0.49c-0.49-0.91-0.87-1.84-1.16-2.81h-0.7
			C0.96,37.36,0,36.4,0,35.21v-4.3c0-1.19,0.96-2.15,2.15-2.15h0.7c0.29-0.97,0.68-1.9,1.16-2.8l-0.49-0.49
			c-0.84-0.84-0.84-2.2,0-3.04l3.04-3.04c0.77-0.77,1.98-0.8,2.82-0.14V4.94c0-2.58,2.1-4.69,4.69-4.69h13.03h0
			c1.71,0,3.64,1.27,4.31,2.85l5.48,12.78h9.99v-3.93c0-2.93,1.03-5.75,2.88-7.98c0.62-0.75,1.76-0.8,2.41-0.08l2.11,2.36
			c0.48,0.53,0.56,1.34,0.13,1.9c-0.83,1.08-1.28,2.41-1.28,3.79v3.93h6.25C61.1,15.88,62.5,17.27,62.5,19z M25,33.06
			c0-4.31-3.5-7.81-7.81-7.81s-7.81,3.5-7.81,7.81s3.5,7.81,7.81,7.81S25,37.38,25,33.06z M30.08,15.88L26.06,6.5H15.63v9.38h3.71
			H30.08z M60.16,41.66c0,4.75-3.85,8.59-8.59,8.59s-8.59-3.85-8.59-8.59s3.85-8.59,8.59-8.59S60.16,36.91,60.16,41.66z
			 M53.91,41.66c0-1.29-1.05-2.34-2.34-2.34s-2.34,1.05-2.34,2.34S50.27,44,51.56,44S53.91,42.95,53.91,41.66z"/>
	</g>
</g>
</svg>
