<?xml version="1.0" encoding="utf-8"?>
<!-- Generator: Adobe Illustrator 24.0.1, SVG Export Plug-In . SVG Version: 6.00 Build 0)  -->
<svg version="1.1" id="Layer_1" xmlns="http://www.w3.org/2000/svg" xmlns:xlink="http://www.w3.org/1999/xlink" x="0px" y="0px"
	 viewBox="0 0 52 53" style="enable-background:new 0 0 52 53;" xml:space="preserve">
<style type="text/css">
	.st0{enable-background:new    ;}
	.st1{fill:none;stroke:#6FBD13;}
</style>
<g id="icon-yte" transform="translate(1 1)">
	<g class="st0">
		<path class="st1" d="M50,17.44v28.13c0,2.59-2.1,4.69-4.69,4.69H4.69C2.1,50.25,0,48.15,0,45.56V17.44c0-2.59,2.1-4.69,4.69-4.69
			h7.81V8.06c0-2.59,2.1-4.69,4.69-4.69h15.63c2.59,0,4.69,2.1,4.69,4.69v4.69h7.81C47.9,12.75,50,14.85,50,17.44z M34.38,29.16
			c0-0.43-0.35-0.78-0.78-0.78h-5.47v-5.47c0-0.43-0.35-0.78-0.78-0.78h-4.69c-0.43,0-0.78,0.35-0.78,0.78v5.47h-5.47
			c-0.43,0-0.78,0.35-0.78,0.78v4.69c0,0.43,0.35,0.78,0.78,0.78h5.47v5.47c0,0.43,0.35,0.78,0.78,0.78h4.69
			c0.43,0,0.78-0.35,0.78-0.78v-5.47h5.47c0.43,0,0.78-0.35,0.78-0.78V29.16z M18.75,12.75h12.5V9.63h-12.5V12.75z"/>
	</g>
</g>
</svg>
