<?xml version="1.0" encoding="utf-8"?>
<!-- Generator: Adobe Illustrator 24.0.1, SVG Export Plug-In . SVG Version: 6.00 Build 0)  -->
<svg version="1.1" id="Layer_1" xmlns="http://www.w3.org/2000/svg" xmlns:xlink="http://www.w3.org/1999/xlink" x="0px" y="0px"
	 viewBox="0 0 54 54" style="enable-background:new 0 0 54 54;" xml:space="preserve">
<style type="text/css">
	.st0{enable-background:new    ;}
	.st1{fill:none;stroke:#6FBD13;}
</style>
<g id="icon-nangluong" transform="translate(2 2)">
	<g class="st0">
		<path class="st1" d="M49.04,26.77l-9.25,4.62l3.27,9.8c0.45,1.32-0.81,2.58-2.14,2.14l-9.8-3.27l-4.62,9.25
			c-0.63,1.25-2.4,1.25-3.03,0l-4.62-9.25l-9.8,3.27c-1.32,0.45-2.58-0.81-2.14-2.14l3.27-9.81l-9.25-4.62
			c-1.25-0.63-1.25-2.4,0-3.03l9.25-4.63L6.91,9.3C6.46,7.98,7.72,6.72,9.05,7.16l9.81,3.27l4.62-9.25c0.63-1.25,2.4-1.25,3.03,0
			l4.63,9.26l9.8-3.27c1.32-0.45,2.58,0.81,2.14,2.14l-3.27,9.8l9.25,4.62C50.31,24.36,50.31,26.14,49.04,26.77z M33.84,16.41
			c-4.87-4.87-12.8-4.87-17.68,0s-4.87,12.8,0,17.68s12.8,4.87,17.68,0S38.71,21.29,33.84,16.41z M34.38,25.25
			c0,5.17-4.21,9.38-9.38,9.38s-9.38-4.21-9.38-9.38s4.21-9.38,9.38-9.38S34.38,20.08,34.38,25.25z"/>
	</g>
</g>
</svg>
