<?xml version="1.0" encoding="utf-8"?>
<!-- Generator: Adobe Illustrator 24.0.1, SVG Export Plug-In . SVG Version: 6.00 Build 0)  -->
<svg version="1.1" id="Layer_1" xmlns="http://www.w3.org/2000/svg" xmlns:xlink="http://www.w3.org/1999/xlink" x="0px" y="0px"
	 viewBox="0 0 46 53" style="enable-background:new 0 0 46 53;" xml:space="preserve">
<style type="text/css">
	.st0{enable-background:new    ;}
	.st1{fill:none;stroke:#6FBD13;}
</style>
<g id="icon-laodong" transform="translate(1 1)">
	<g class="st0">
		<path class="st1" d="M43.75,4.94v40.63c0,2.5-2.19,4.69-4.69,4.69H4.69c-2.5,0-4.69-2.19-4.69-4.69V4.94
			c0-2.5,2.19-4.69,4.69-4.69h34.38C41.56,0.25,43.75,2.44,43.75,4.94z M37.5,7.75c0-0.63-0.63-1.25-1.25-1.25H7.5
			c-0.63,0-1.25,0.63-1.25,1.25v10C6.25,18.38,6.88,19,7.5,19h28.75c0.63,0,1.25-0.63,1.25-1.25V7.75z M12.5,26.5
			c0-0.63-0.63-1.25-1.25-1.25H7.5c-0.63,0-1.25,0.63-1.25,1.25v3.75c0,0.63,0.63,1.25,1.25,1.25h3.75c0.63,0,1.25-0.63,1.25-1.25
			V26.5z M12.5,39c0-0.63-0.63-1.25-1.25-1.25H7.5c-0.63,0-1.25,0.63-1.25,1.25v3.75C6.25,43.38,6.88,44,7.5,44h3.75
			c0.63,0,1.25-0.63,1.25-1.25V39z M25,26.5c0-0.63-0.63-1.25-1.25-1.25H20c-0.63,0-1.25,0.63-1.25,1.25v3.75
			c0,0.63,0.63,1.25,1.25,1.25h3.75c0.63,0,1.25-0.63,1.25-1.25V26.5z M25,39c0-0.63-0.63-1.25-1.25-1.25H20
			c-0.63,0-1.25,0.63-1.25,1.25v3.75c0,0.63,0.63,1.25,1.25,1.25h3.75c0.63,0,1.25-0.63,1.25-1.25V39z M37.5,26.5
			c0-0.63-0.63-1.25-1.25-1.25H32.5c-0.63,0-1.25,0.63-1.25,1.25v16.25c0,0.63,0.63,1.25,1.25,1.25h3.75c0.63,0,1.25-0.63,1.25-1.25
			V26.5z"/>
	</g>
</g>
</svg>
