<?xml version="1.0" encoding="utf-8"?>
<!-- Generator: Adobe Illustrator 24.0.1, SVG Export Plug-In . SVG Version: 6.00 Build 0)  -->
<svg version="1.1" id="Layer_1" xmlns="http://www.w3.org/2000/svg" xmlns:xlink="http://www.w3.org/1999/xlink" x="0px" y="0px"
	 viewBox="0 0 53 53" style="enable-background:new 0 0 53 53;" xml:space="preserve">
<style type="text/css">
	.st0{enable-background:new    ;}
	.st1{fill:none;stroke:#6FBD13;}
</style>
<g id="icon-KTTM" transform="translate(2 1)">
	<g class="st0">
		<path class="st1" d="M49.99,38.27v8.86c0,1.73-1.4,3.13-3.13,3.13H3.12c-1.73,0-3.13-1.4-3.13-3.13v-8.87
			c0-0.34,0.03-0.68,0.09-1.03l2.61-15.63C2.94,20.1,4.25,19,5.77,19h8.29v-6.25H4.69c-0.86,0-1.56-0.7-1.56-1.56V1.81
			c0-0.86,0.7-1.56,1.56-1.56h25c0.86,0,1.56,0.7,1.56,1.56v9.38c0,0.86-0.7,1.56-1.56,1.56h-9.38v6.25h23.91
			c1.53,0,2.83,1.1,3.09,2.61l2.61,15.63C49.97,37.58,50,37.93,49.99,38.27z M26.56,8.06V4.94H7.81v3.13H26.56z M13.28,26.03v-1.56
			c0-0.86-0.7-1.56-1.56-1.56h-1.56c-0.86,0-1.56,0.7-1.56,1.56v1.56c0,0.86,0.7,1.56,1.56,1.56h1.56
			C12.58,27.59,13.28,26.89,13.28,26.03z M14.84,35.41h1.56c0.86,0,1.56-0.7,1.56-1.56v-1.56c0-0.86-0.7-1.56-1.56-1.56h-1.56
			c-0.86,0-1.56,0.7-1.56,1.56v1.56C13.28,34.7,13.98,35.41,14.84,35.41z M34.38,43.22c0-0.43-0.35-0.78-0.78-0.78H16.41
			c-0.43,0-0.78,0.35-0.78,0.78v1.56c0,0.43,0.35,0.78,0.78,0.78h17.19c0.43,0,0.78-0.35,0.78-0.78V43.22z M19.53,22.91
			c-0.86,0-1.56,0.7-1.56,1.56v1.56c0,0.86,0.7,1.56,1.56,1.56h1.56c0.86,0,1.56-0.7,1.56-1.56v-1.56c0-0.86-0.7-1.56-1.56-1.56
			H19.53z M22.66,32.28v1.56c0,0.86,0.7,1.56,1.56,1.56h1.56c0.86,0,1.56-0.7,1.56-1.56v-1.56c0-0.86-0.7-1.56-1.56-1.56h-1.56
			C23.36,30.72,22.66,31.42,22.66,32.28z M27.34,26.03c0,0.86,0.7,1.56,1.56,1.56h1.56c0.86,0,1.56-0.7,1.56-1.56v-1.56
			c0-0.86-0.7-1.56-1.56-1.56h-1.56c-0.86,0-1.56,0.7-1.56,1.56V26.03z M36.72,32.28c0-0.86-0.7-1.56-1.56-1.56h-1.56
			c-0.86,0-1.56,0.7-1.56,1.56v1.56c0,0.86,0.7,1.56,1.56,1.56h1.56c0.86,0,1.56-0.7,1.56-1.56V32.28z M41.41,24.47
			c0-0.86-0.7-1.56-1.56-1.56h-1.56c-0.86,0-1.56,0.7-1.56,1.56v1.56c0,0.86,0.7,1.56,1.56,1.56h1.56c0.86,0,1.56-0.7,1.56-1.56
			V24.47z"/>
	</g>
</g>
</svg>
