<?xml version="1.0" encoding="utf-8"?>
<!-- Generator: Adobe Illustrator 24.0.1, SVG Export Plug-In . SVG Version: 6.00 Build 0)  -->
<svg version="1.1" id="Layer_1" xmlns="http://www.w3.org/2000/svg" xmlns:xlink="http://www.w3.org/1999/xlink" x="0px" y="0px"
	 viewBox="0 0 67 52" style="enable-background:new 0 0 67 52;" xml:space="preserve">
<style type="text/css">
	.st0{enable-background:new    ;}
	.st1{fill:none;stroke:#6FBD13;}
</style>
<g id="icon-giaoduc" transform="translate(1 1)">
	<g class="st0">
		<path class="st1" d="M61.78,19.66l-27.24,8.37c-1.99,0.61-3.68,0.27-4.57,0l-19.1-5.87c-1.2,0.82-1.95,2.12-2.02,3.59
			c0.9,0.55,1.53,1.49,1.53,2.62c0,1.05-0.55,1.94-1.35,2.5l2.49,11.22c0.22,0.98-0.53,1.9-1.53,1.9H4.51c-1,0-1.74-0.93-1.52-1.9
			l2.49-11.22c-0.8-0.57-1.35-1.45-1.35-2.5c0-1.16,0.66-2.13,1.6-2.67c0.06-1.72,0.7-3.29,1.75-4.58l-4.75-1.46
			c-2.3-0.71-2.3-3.75,0-4.45l27.24-8.37c1.48-0.46,3.08-0.46,4.57,0l27.24,8.37C64.08,15.92,64.08,18.96,61.78,19.66z M49.62,26.67
			L51,37.75C51,41.2,42.61,44,32.25,44S13.5,41.2,13.5,37.75l1.38-11.08l14.16,4.35c1.25,0.38,3.62,0.86,6.41,0L49.62,26.67z"/>
	</g>
</g>
</svg>
