<?xml version="1.0" encoding="utf-8"?>
<!-- Generator: Adobe Illustrator 24.0.1, SVG Export Plug-In . SVG Version: 6.00 Build 0)  -->
<svg version="1.1" id="Layer_1" xmlns="http://www.w3.org/2000/svg" xmlns:xlink="http://www.w3.org/1999/xlink" x="0px" y="0px"
	 viewBox="0 0 37 54" style="enable-background:new 0 0 37 54;" xml:space="preserve">
<style type="text/css">
	.st0{enable-background:new    ;}
	.st1{fill:none;stroke:#6FBD13;}
</style>
<g id="icon-moitruong" transform="translate(1 1)">
	<g class="st0">
		<path class="st1" d="M34.38,33.86c0,9.61-7.69,17.39-17.19,17.39S0,43.47,0,33.86C0,23,9.77,18.81,14.33,3.41
			c0.88-2.94,4.93-2.81,5.71,0C24.63,18.88,34.38,22.95,34.38,33.86z M18.75,43.44c0-0.86-0.7-1.56-1.56-1.56
			c-4.31,0-7.81-3.5-7.81-7.81c0-0.86-0.7-1.56-1.56-1.56s-1.56,0.7-1.56,1.56C6.25,40.09,11.16,45,17.19,45
			C18.05,45,18.75,44.3,18.75,43.44z"/>
	</g>
</g>
</svg>
