<svg id="logo_cong" xmlns="http://www.w3.org/2000/svg" width="251.406" height="46.32" viewBox="0 0 251.406 46.32">
  <g id="Group_34" data-name="Group 34" transform="translate(13.737 13.931)">
    <circle id="Ellipse_183" data-name="Ellipse 183" cx="8.886" cy="8.886" r="8.886" fill="#e60019"/>
    <path id="Path_8199" data-name="Path 8199" d="M375.129,389.224l1.337,4.115h4.327l-3.5,2.543L378.63,400l-3.5-2.543-3.5,2.543,1.337-4.115-3.5-2.543h4.327Z" transform="translate(-366.243 -385.725)" fill="#ffe600"/>
  </g>
  <g id="Group_35" data-name="Group 35" transform="translate(169.67 33.88)">
    <path id="Path_8200" data-name="Path 8200" d="M456.377,404.592c0,.206,0,.391.008.552.008.412.025.778.046,1.1q.078,1,.718,1.176c.06.013.092.036.092.065s-.077.054-.231.054h-1.586a3.494,3.494,0,0,1-.262-.73c-.013-.052-.027-.112-.04-.171a1.461,1.461,0,0,1-.035-.166l-.058-.281H455a2.944,2.944,0,0,1-2.738,1.552,3.291,3.291,0,0,1-2.443-1.007,3.924,3.924,0,0,1-.031-5.271,3.226,3.226,0,0,1,2.474-1.138,3.139,3.139,0,0,1,2.7,1.143h.027V399.4c0-.158,0-.273-.008-.348a1.112,1.112,0,0,0-.058-.31.571.571,0,0,0-.462-.381c-.114-.031-.171-.058-.171-.079s.029-.038.085-.052l.152-.027c.579-.11,1.2-.256,1.848-.433Zm-5.777,1.165a2.7,2.7,0,0,0,.6,1.026,2.018,2.018,0,0,0,.768.493,2.109,2.109,0,0,0,.745.131,1.979,1.979,0,0,0,1.5-.749,2.938,2.938,0,0,0,.6-1.04,4.748,4.748,0,0,0,.244-1.581,5.4,5.4,0,0,0-.244-1.723,2.675,2.675,0,0,0-.6-1.026,2.018,2.018,0,0,0-.762-.493,2.225,2.225,0,0,0-1.482,0,2,2,0,0,0-.768.493,2.7,2.7,0,0,0-.6,1.026,5.455,5.455,0,0,0-.242,1.723A5.4,5.4,0,0,0,450.6,405.756Z" transform="translate(-448.792 -397.769)" fill="#fff"/>
    <path id="Path_8201" data-name="Path 8201" d="M460.158,405.137c0,.547.162.891.487,1.04l.092.04c.027.01.04.023.04.039,0,.037-.062.054-.179.054h-1.453a3.885,3.885,0,0,1-.323-1.375H458.8a2.572,2.572,0,0,1-2.493,1.579,3.4,3.4,0,0,1-1.946-.526,1.958,1.958,0,0,1-.9-1.725,1.638,1.638,0,0,1,.514-1.219,3.13,3.13,0,0,1,1.222-.676,7.7,7.7,0,0,1,1.5-.3c.223-.021.458-.039.7-.046.193-.01.393-.013.6-.013h.77v-.447a2.438,2.438,0,0,0-.474-1.592,1.829,1.829,0,0,0-1.494-.62,2.415,2.415,0,0,0-2.454,1.554l-.052.125-.013.033c-.017.048-.031.071-.04.071s-.033-.05-.065-.15l-.356-1.211a5.731,5.731,0,0,1,1.561-.56,9.119,9.119,0,0,1,1.625-.117,4.209,4.209,0,0,1,2.152.493,1.909,1.909,0,0,1,1,1.758Zm-1.388-2.868h-.8a5.894,5.894,0,0,0-1.074.092,3.149,3.149,0,0,0-.947.343,1.907,1.907,0,0,0-.928,1.771,1.677,1.677,0,0,0,.476,1.222,1.612,1.612,0,0,0,1.2.479,1.76,1.76,0,0,0,1.631-1,3.562,3.562,0,0,0,.343-.961,5.015,5.015,0,0,0,.1-1.007Z" transform="translate(-444.473 -396.54)" fill="#fff"/>
    <path id="Path_8202" data-name="Path 8202" d="M457.84,400.739c-.087,0-.131-.042-.131-.125,0-.048.09-.112.271-.185a3.477,3.477,0,0,0,1.914-1.915c.039-.092.089-.137.144-.137.033,0,.05.019.06.058a.515.515,0,0,1,.013.133V400.3H461.6l-.09.435h-1.4v3.823a4.184,4.184,0,0,0,.269,1.75.991.991,0,0,0,.591.514c.106.042.158.077.158.1,0,.037-.071.054-.216.054h-1.627a.99.99,0,0,1-.566-.988v-5.25Z" transform="translate(-440.543 -397.207)" fill="#fff"/>
    <path id="Path_8203" data-name="Path 8203" d="M466.763,405.137c0,.547.162.891.487,1.04l.092.04c.025.01.038.023.038.039,0,.037-.06.054-.179.054h-1.451a3.843,3.843,0,0,1-.323-1.375H465.4a2.573,2.573,0,0,1-2.493,1.579,3.415,3.415,0,0,1-1.948-.526,1.962,1.962,0,0,1-.9-1.725,1.638,1.638,0,0,1,.514-1.219,3.125,3.125,0,0,1,1.224-.676,7.651,7.651,0,0,1,1.5-.3c.223-.021.458-.039.7-.046.194-.01.393-.013.6-.013h.768v-.447a2.438,2.438,0,0,0-.474-1.592,1.825,1.825,0,0,0-1.492-.62,2.417,2.417,0,0,0-2.456,1.554l-.052.125-.013.033c-.017.048-.029.071-.038.071s-.035-.05-.065-.15l-.356-1.211a5.719,5.719,0,0,1,1.559-.56,9.12,9.12,0,0,1,1.625-.117,4.209,4.209,0,0,1,2.152.493,1.911,1.911,0,0,1,1,1.758Zm-1.39-2.868h-.8a5.872,5.872,0,0,0-1.072.092,3.141,3.141,0,0,0-.949.343,1.905,1.905,0,0,0-.926,1.771,1.683,1.683,0,0,0,.474,1.222,1.612,1.612,0,0,0,1.2.479,1.765,1.765,0,0,0,1.632-1,3.561,3.561,0,0,0,.341-.961,4.881,4.881,0,0,0,.1-1.007Z" transform="translate(-438.364 -396.54)" fill="#fff"/>
    <path id="Path_8204" data-name="Path 8204" d="M466.434,402.918a.81.81,0,1,1-.81-.808A.716.716,0,0,1,466.434,402.918Z" transform="translate(-433.969 -393.754)" fill="#fff"/>
    <path id="Path_8205" data-name="Path 8205" d="M474.008,400a.793.793,0,0,1-.09-.073.389.389,0,0,0-.048-.046l-.289-.25a1.486,1.486,0,0,0-.857-.237c-.427,0-.695.146-.8.443l.724.387a3.054,3.054,0,0,1,.606.441,1.876,1.876,0,0,1,.572,1.423,2.011,2.011,0,0,1-.356,1.17,2.6,2.6,0,0,1-.874.768,4.1,4.1,0,0,1-1.113.422,4.491,4.491,0,0,1-1.067.131l-.466.021c-.181.008-.322.019-.422.033q-.422.066-.422.323c0,.2.2.329.585.395a4.494,4.494,0,0,0,.547.058c.079.006.175.01.291.014l.8.035.579.052a5.923,5.923,0,0,1,1.2.256,2.275,2.275,0,0,1,.961.574,1.441,1.441,0,0,1,.395,1.032c0,.6-.4,1.111-1.19,1.513a5.945,5.945,0,0,1-2.759.591,7.507,7.507,0,0,1-3.013-.5c-.666-.3-1-.653-1-1.066a1.383,1.383,0,0,1,.289-.882,1.865,1.865,0,0,1,.7-.506,4.281,4.281,0,0,1,.835-.244l.71-.092v-.025c-.058,0-.114-.012-.169-.019l-.212-.027a2.733,2.733,0,0,1-.441-.117c-.35-.129-.528-.312-.528-.553,0-.291.229-.533.685-.724a3.443,3.443,0,0,1,.552-.179,3.361,3.361,0,0,1,.422-.065v-.027a2.937,2.937,0,0,1-1.659-.768,1.944,1.944,0,0,1-.658-1.592,2,2,0,0,1,.356-1.167,2.509,2.509,0,0,1,.876-.768,3.976,3.976,0,0,1,1.111-.429,4.62,4.62,0,0,1,1.067-.131,4.05,4.05,0,0,1,.784.073l.466.1a4.721,4.721,0,0,1,1.246-.941,3.825,3.825,0,0,1,1.532-.256Zm-3.881,6.376-.435.019a4.017,4.017,0,0,0-.876.166,1.227,1.227,0,0,0-.966,1.228v.014a1.224,1.224,0,0,0,.966,1.224,4.125,4.125,0,0,0,.876.166l.435.019.387.008a4.3,4.3,0,0,0,1.869-.356,1.184,1.184,0,0,0,.8-1.061,1.243,1.243,0,0,0-.974-1.19,3.662,3.662,0,0,0-.868-.2,6.534,6.534,0,0,0-.83-.048Zm1.729-2.68a2.813,2.813,0,0,0,.547-1.609,2.784,2.784,0,0,0-.547-1.606,1.917,1.917,0,0,0-2.847,0,2.614,2.614,0,0,0,0,3.215,1.928,1.928,0,0,0,2.847,0Z" transform="translate(-432.41 -397.03)" fill="#fff"/>
    <path id="Path_8206" data-name="Path 8206" d="M472.174,400.145a4.016,4.016,0,0,1,2.849-1.047,4.062,4.062,0,0,1,2.87,1.047,3.693,3.693,0,0,1,0,5.321,4.062,4.062,0,0,1-2.87,1.047,4.016,4.016,0,0,1-2.849-1.047,3.679,3.679,0,0,1,0-5.321Zm.52,3.868a3.875,3.875,0,0,0,.362,1.113,2.289,2.289,0,0,0,3.948,0,3.6,3.6,0,0,0,.362-1.113,7.483,7.483,0,0,0,0-2.416,3.6,3.6,0,0,0-.362-1.111,2.287,2.287,0,0,0-3.948,0,3.882,3.882,0,0,0-.362,1.111,7.333,7.333,0,0,0-.09,1.211A7.181,7.181,0,0,0,472.694,404.013Z" transform="translate(-428.214 -396.54)" fill="#fff"/>
    <path id="Path_8207" data-name="Path 8207" d="M480.222,404.81l1.723-3.357c.15-.325.256-.576.322-.757a2.076,2.076,0,0,0,.141-.658c0-.346-.21-.591-.626-.73-.081-.013-.119-.038-.119-.079s.044-.052.131-.052l.685.044c.1.006.219.008.343.008l1-.052c.116,0,.171.013.171.038,0,.054-.04.108-.119.164a3.044,3.044,0,0,0-.683.732,11.635,11.635,0,0,0-.689,1.111l-2.628,5.028a.946.946,0,0,1-.085.125c-.035.042-.062.066-.079.066h-.025a1.021,1.021,0,0,1-.141-.2l-2.73-5.331-.362-.645a2.924,2.924,0,0,0-.768-.9c-.112-.069-.166-.116-.166-.137s.06-.052.177-.052l1.2.052,1.211-.052a.378.378,0,0,1,.112.013c.044.008.065.019.065.039,0,.04-.04.073-.123.106a.475.475,0,0,0-.377.512,1.293,1.293,0,0,0,.127.468q.038.1.1.237Z" transform="translate(-424.069 -396.467)" fill="#fff"/>
    <path id="Path_8208" data-name="Path 8208" d="M482.314,402.918a.81.81,0,1,1-.81-.808A.716.716,0,0,1,482.314,402.918Z" transform="translate(-419.279 -393.754)" fill="#fff"/>
    <path id="Path_8209" data-name="Path 8209" d="M487.025,404.81l1.723-3.357c.148-.325.256-.576.322-.757a2.067,2.067,0,0,0,.139-.658c0-.346-.208-.591-.626-.73-.079-.013-.117-.038-.117-.079s.044-.052.131-.052l.685.044c.1.006.219.008.341.008l1-.052c.114,0,.171.013.171.038,0,.054-.04.108-.119.164a3.047,3.047,0,0,0-.683.732,11.614,11.614,0,0,0-.691,1.111l-2.626,5.028a1.174,1.174,0,0,1-.085.125c-.035.042-.062.066-.079.066h-.027a1.2,1.2,0,0,1-.139-.2l-2.73-5.331-.362-.645a2.9,2.9,0,0,0-.77-.9c-.11-.069-.166-.116-.166-.137s.062-.052.179-.052l1.2.052,1.211-.052a.379.379,0,0,1,.112.013c.044.008.065.019.065.039,0,.04-.042.073-.125.106a.475.475,0,0,0-.375.512,1.293,1.293,0,0,0,.127.468q.038.1.1.237Z" transform="translate(-417.777 -396.467)" fill="#fff"/>
    <path id="Path_8210" data-name="Path 8210" d="M488.966,401.191h.027a2.916,2.916,0,0,1,.822-1.475,2.78,2.78,0,0,1,1.921-.618,2.952,2.952,0,0,1,1.994.653,2.828,2.828,0,0,1,.882,2.262v2.6a3.713,3.713,0,0,0,.11,1.232.669.669,0,0,0,.429.373c.114.033.171.062.171.092s-.067.039-.2.039l-1.211-.039c-.291,0-.591.008-.9.019-.05,0-.1.006-.166.006l-.321.013c-.1,0-.144-.013-.144-.039,0-.044.039-.069.117-.079q.73-.087.73-1.619V402a3.148,3.148,0,0,0-.452-1.75,1.723,1.723,0,0,0-1.527-.81,1.775,1.775,0,0,0-1.671,1.053,5.517,5.517,0,0,0-.462,2.474v1.646a4.025,4.025,0,0,0,.1,1.074.68.68,0,0,0,.547.518c.1.013.152.04.152.079s-.042.065-.125.065l-.283-.013c-.058,0-.112,0-.164-.006-.322-.012-.63-.019-.922-.019s-.618.008-.961.019c-.058,0-.116.006-.179.006l-.308.013c-.079,0-.117-.019-.117-.065s.05-.065.15-.079a.736.736,0,0,0,.612-.518,3.638,3.638,0,0,0,.112-1.074V401.27q0-1.224-.474-1.428c-.158-.075-.237-.119-.237-.139s.085-.033.248-.065l.909-.171a8.11,8.11,0,0,0,.8-.216Z" transform="translate(-413.587 -396.54)" fill="#fff"/>
  </g>
  <g id="Group_36" data-name="Group 36" transform="translate(38.055 10.145)">
    <path id="Path_8211" data-name="Path 8211" d="M391.973,404.585a6.965,6.965,0,0,1-9.535.033,6.1,6.1,0,0,1-2.014-4.626,7.5,7.5,0,0,1,.5-2.741,5.765,5.765,0,0,1,.836-1.438,6.451,6.451,0,0,1,5.425-2.632,6.606,6.606,0,0,1,4.788,1.912,6.681,6.681,0,0,1,0,9.493ZM388,392.293l-.8-1-.8,1H383.6l2.7-2.878h1.869l2.607,2.878Zm1.735,4.915a3.216,3.216,0,0,0-2.53-1.151,3.252,3.252,0,0,0-2.537,1.117,3.784,3.784,0,0,0-.964,2.622,3.873,3.873,0,0,0,.972,2.674,3.265,3.265,0,0,0,2.564,1.142,3.171,3.171,0,0,0,2.495-1.149,4.116,4.116,0,0,0,0-5.254Zm2.318-9.111a2.412,2.412,0,0,1-.254.329,3.355,3.355,0,0,1-.277.3l-.3.271c-.106.1-.191.189-.254.262a1.036,1.036,0,0,0-.287.576H389.2a1.509,1.509,0,0,1,.237-.762,2.862,2.862,0,0,1,.237-.3c.069-.079.156-.171.264-.279l.262-.262c.1-.1.175-.189.237-.262a.922.922,0,0,0,.219-.551q0-.526-.491-.526a.5.5,0,0,0-.481.254,1.31,1.31,0,0,0-.1.558h-1.55a.365.365,0,0,0-.008-.075v-.077a1.987,1.987,0,0,1,.651-1.53,2.258,2.258,0,0,1,1.573-.576,1.891,1.891,0,0,1,1.827,1.015,1.627,1.627,0,0,1,.2.78A1.657,1.657,0,0,1,392.048,388.1Z" transform="translate(-380.424 -385.44)" fill="#fff"/>
    <path id="Path_8212" data-name="Path 8212" d="M396.339,402.409l-4.88-7.8-.044.017.094,7.783h-3.14V389.584H391.2l4.957,8.062.035-.035-.144-8.028h3.138v12.825Z" transform="translate(-373.074 -381.606)" fill="#fff"/>
    <path id="Path_8213" data-name="Path 8213" d="M408.563,395.908a6.7,6.7,0,0,1-1.946,4.915,7.033,7.033,0,0,1-9.72.025,6.46,6.46,0,0,1-1.989-4.788,6.256,6.256,0,0,1,2.023-4.747,7.087,7.087,0,0,1,8.788-.608,5.888,5.888,0,0,1,2.464,3.29H404.51a3.036,3.036,0,0,0-2.824-1.658,3.286,3.286,0,0,0-2.539,1.1,3.772,3.772,0,0,0-.964,2.624,3.978,3.978,0,0,0,.939,2.707,3.254,3.254,0,0,0,2.58,1.142,3.556,3.556,0,0,0,1.914-.5,2.617,2.617,0,0,0,1.149-1.565h-3.823v-2.614h7.6c.006.1.012.214.017.339Z" transform="translate(-367.025 -381.72)" fill="#fff"/>
    <path id="Path_8214" data-name="Path 8214" d="M410.05,402.409h-4.485V389.584h4.247a13.033,13.033,0,0,1,1.659.092,6.987,6.987,0,0,1,1.5.356,5.227,5.227,0,0,1,2.5,1.946,6.624,6.624,0,0,1,1.184,3.983Q416.655,402.41,410.05,402.409Zm2.587-8.934a2.866,2.866,0,0,0-2.378-1.015H408.84v7.073h1.4a2.907,2.907,0,0,0,2.4-.982,4.717,4.717,0,0,0-.008-5.076Z" transform="translate(-357.166 -381.606)" fill="#fff"/>
    <path id="Path_8215" data-name="Path 8215" d="M422.154,393.454v5.558a8.38,8.38,0,0,1-.219,2.123,4.172,4.172,0,0,1-1.057,1.812,4.808,4.808,0,0,1-3.588,1.388,6.2,6.2,0,0,1-2-.314,4.121,4.121,0,0,1-1.692-1.057,4.358,4.358,0,0,1-1.082-1.829,5.441,5.441,0,0,1-.162-.99c-.029-.293-.042-.67-.042-1.134v-7.748h3.275v7.748a6.3,6.3,0,0,0,.05.872,2.572,2.572,0,0,0,.229.787,1.414,1.414,0,0,0,1.388.785,1.379,1.379,0,0,0,1.388-.77,2.421,2.421,0,0,0,.2-.778c.023-.225.035-.524.035-.9v-7.748h3.273v.685a1.24,1.24,0,0,0,.346-.887h-.676v-1.929h1.937v1.987a2.663,2.663,0,0,1-.8,1.827A3.277,3.277,0,0,1,422.154,393.454Zm-1.575-4.077a3.649,3.649,0,0,1-1.952.643,4.283,4.283,0,0,1-.687-.067l-1.428-.314a3.937,3.937,0,0,0-.66-.067,2.125,2.125,0,0,0-.635.1l-.608.227-1.04-1.531a5.919,5.919,0,0,1,.912-.424,3.065,3.065,0,0,1,.99-.177,4.271,4.271,0,0,1,.71.067c.1.017.22.04.348.067l.693.162c.131.029.245.05.347.067a4.271,4.271,0,0,0,.71.067,3.236,3.236,0,0,0,1.261-.3Z" transform="translate(-350.922 -383.285)" fill="#fff"/>
    <path id="Path_8216" data-name="Path 8216" d="M421.434,402.409V389.584h3.275v9.949h3.8v2.876Z" transform="translate(-342.486 -381.606)" fill="#fff"/>
    <path id="Path_8217" data-name="Path 8217" d="M425.771,402.409V389.584h3.275v12.825Z" transform="translate(-338.474 -381.606)" fill="#fff"/>
    <path id="Path_8218" data-name="Path 8218" d="M433.031,390.383l-.8-1-.8,1h-2.809l2.7-2.878h1.879l2.595,2.878Zm-4.314,13.949V391.507h7.123v2.876h-3.983v2h3.864v2.876h-3.864v2.2h3.983v2.876Zm2.191,4.152v-2.612h2.749v2.612Z" transform="translate(-335.827 -383.53)" fill="#fff"/>
    <path id="Path_8219" data-name="Path 8219" d="M443.248,397.333a8.369,8.369,0,0,1-.221,2.123,4.134,4.134,0,0,1-1.057,1.812,4.8,4.8,0,0,1-3.586,1.388,6.141,6.141,0,0,1-2-.314,4.121,4.121,0,0,1-1.692-1.057,4.337,4.337,0,0,1-1.082-1.829,5.761,5.761,0,0,1-.169-.99q-.035-.439-.035-1.134v-7.748h3.273v7.748a6.284,6.284,0,0,0,.052.872,2.572,2.572,0,0,0,.229.787,1.414,1.414,0,0,0,1.388.785,1.375,1.375,0,0,0,1.386-.77,2.7,2.7,0,0,0,.2-.778c.021-.225.033-.524.033-.9v-7.748h3.275Z" transform="translate(-331.408 -381.606)" fill="#fff"/>
    <path id="Path_8220" data-name="Path 8220" d="M456.4,402.752c-.364.021-.635.033-.812.033a5.658,5.658,0,0,1-1.605-.219,3.079,3.079,0,0,1-1.405-.787,6.93,6.93,0,0,1-8.366-.9,6.271,6.271,0,0,1-2.014-4.7,6.675,6.675,0,0,1,6.744-6.717,6.782,6.782,0,0,1,4.788,1.869,6.136,6.136,0,0,1,2.056,4.678,6.5,6.5,0,0,1-1.057,3.706,1.9,1.9,0,0,0,1.673.431Zm-4.888-9.383a3.421,3.421,0,0,0-2.555-1.032,3.186,3.186,0,0,0-2.345.939,4.128,4.128,0,0,0-1.124,2.3,5.682,5.682,0,0,1,.887-.312,3.644,3.644,0,0,1,.932-.119,5.086,5.086,0,0,1,2.672.812,8.545,8.545,0,0,1,2.089,1.887,3.679,3.679,0,0,0,.441-1.887A3.575,3.575,0,0,0,451.509,393.369Zm-1.8,5.415a4.678,4.678,0,0,0-.78-.653,3.4,3.4,0,0,0-3.113-.389,3.184,3.184,0,0,0,3.123,2.166,3.1,3.1,0,0,0,1.49-.329Q450.02,399.1,449.707,398.784Z" transform="translate(-323.282 -381.72)" fill="#fff"/>
    <path id="Path_8221" data-name="Path 8221" d="M460.1,397.333a8.38,8.38,0,0,1-.219,2.123,4.158,4.158,0,0,1-1.059,1.812,4.806,4.806,0,0,1-3.586,1.388,6.141,6.141,0,0,1-2-.314,4.1,4.1,0,0,1-1.692-1.057,4.363,4.363,0,0,1-1.084-1.829,5.957,5.957,0,0,1-.169-.99c-.021-.293-.033-.67-.033-1.134v-7.748h3.275v7.748a6.626,6.626,0,0,0,.05.872,2.626,2.626,0,0,0,.229.787,1.411,1.411,0,0,0,1.386.785,1.376,1.376,0,0,0,1.388-.77,2.64,2.64,0,0,0,.2-.778c.023-.225.035-.524.035-.9v-7.748H460.1Z" transform="translate(-315.822 -381.606)" fill="#fff"/>
    <path id="Path_8222" data-name="Path 8222" d="M467.812,403.882a6.965,6.965,0,0,1-9.535.033,6.1,6.1,0,0,1-2.012-4.626,7.539,7.539,0,0,1,.5-2.741,5.834,5.834,0,0,1,.837-1.438,6.447,6.447,0,0,1,5.423-2.632,6.607,6.607,0,0,1,4.79,1.912,6.681,6.681,0,0,1,0,9.493Zm-3.977-12.292-.8-1-.8,1h-2.809l2.7-2.878H464l2.607,2.878Zm1.736,4.915a3.4,3.4,0,0,0-5.069-.035,3.784,3.784,0,0,0-.964,2.622,3.873,3.873,0,0,0,.972,2.674,3.263,3.263,0,0,0,2.564,1.142,3.177,3.177,0,0,0,2.5-1.149,4.116,4.116,0,0,0,0-5.254Zm.474-6.37-.812-1.7,4.152-2.233.924,2.048Z" transform="translate(-310.264 -384.737)" fill="#fff"/>
    <path id="Path_8223" data-name="Path 8223" d="M477.177,397.725a6.433,6.433,0,0,1-2.36,3.656,6.851,6.851,0,0,1-8.9-.541,6.679,6.679,0,0,1-.015-9.475,6.568,6.568,0,0,1,4.763-1.9,6.369,6.369,0,0,1,5.641,3.011,5.37,5.37,0,0,1,.872,2.1h-3.434a3.106,3.106,0,0,0-3.1-2.233,3.166,3.166,0,0,0-2.5,1.126,3.861,3.861,0,0,0-.938,2.612,3.952,3.952,0,0,0,.938,2.649,3.157,3.157,0,0,0,2.514,1.167,3.233,3.233,0,0,0,3.078-2.166Z" transform="translate(-303.166 -381.72)" fill="#fff"/>
    <path id="Path_8224" data-name="Path 8224" d="M487.833,395.908a6.674,6.674,0,0,1-6.842,6.876,6.632,6.632,0,0,1-4.822-1.937,6.451,6.451,0,0,1-1.987-4.788,6.253,6.253,0,0,1,2.019-4.747,7.09,7.09,0,0,1,8.79-.608,5.884,5.884,0,0,1,2.462,3.29h-3.671a3.038,3.038,0,0,0-2.826-1.658,3.282,3.282,0,0,0-2.537,1.1,3.772,3.772,0,0,0-.964,2.624,4,4,0,0,0,.938,2.707,3.261,3.261,0,0,0,2.582,1.142,3.545,3.545,0,0,0,1.912-.5,2.62,2.62,0,0,0,1.151-1.565h-3.825v-2.614h7.608c0,.1.01.214.014.339Z" transform="translate(-293.689 -381.72)" fill="#fff"/>
    <path id="Path_8225" data-name="Path 8225" d="M482.152,402.409V389.584h3.276v12.825Z" transform="translate(-286.316 -381.606)" fill="#fff"/>
    <path id="Path_8226" data-name="Path 8226" d="M493.808,402.409l-.628-1.852h-4.449l-.678,1.852h-3.519l5.144-12.825h2.582l5.1,12.825ZM491,393.577h-.052l-1.319,4.383h2.689Z" transform="translate(-284.111 -381.606)" fill="#fff"/>
  </g>
  <g id="Group_37" data-name="Group 37">
    <path id="Path_8227" data-name="Path 8227" d="M388.516,401.045a10.994,10.994,0,1,1-18.985-11.092l-1.925-1.769a13.561,13.561,0,1,0,22.837,14.631Z" transform="translate(-356.229 -372.757)" fill="#fff"/>
    <path id="Path_8228" data-name="Path 8228" d="M393.872,405.471a15.354,15.354,0,1,1-25.513-17.089l-1.9-1.744a17.909,17.909,0,1,0,29.313,20.581Z" transform="translate(-358.319 -374.186)" fill="#fff"/>
    <path id="Path_8229" data-name="Path 8229" d="M399.82,410.382a20.212,20.212,0,1,1-32.732-23.721l-1.9-1.746a22.775,22.775,0,1,0,36.529,27.211Z" transform="translate(-360.656 -375.78)" fill="#fff"/>
    <path id="Path_8230" data-name="Path 8230" d="M368.209,381.39l16.209,15.3,1.763-1.8-15.226-14.377A22.343,22.343,0,0,0,368.209,381.39Z" transform="translate(-353.669 -379.848)" fill="#fff"/>
    <path id="Path_8231" data-name="Path 8231" d="M371.07,380.337l14.248,13.06,1.763-1.8-12.444-11.4c-.279-.01-.558-.021-.839-.021A23.162,23.162,0,0,0,371.07,380.337Z" transform="translate(-351.022 -380.17)" fill="#fff"/>
    <path id="Path_8232" data-name="Path 8232" d="M375.114,380.466l9.935,9.109,2.01-2.052A22.764,22.764,0,0,0,375.114,380.466Z" transform="translate(-347.281 -379.896)" fill="#fff"/>
    <path id="Path_8233" data-name="Path 8233" d="M377.6,390.694l-9.652-9.113a23.123,23.123,0,0,0-2.218,1.373l8.963,8.461A10.923,10.923,0,0,1,377.6,390.694Z" transform="translate(-355.965 -378.865)" fill="#fff"/>
    <path id="Path_8234" data-name="Path 8234" d="M374.069,391.383,365.687,383a23.223,23.223,0,0,0-1.823,1.74l8.336,8.336A11.083,11.083,0,0,1,374.069,391.383Z" transform="translate(-357.688 -377.551)" fill="#fff"/>
  </g>
</svg>
